<mxfile host="app.diagrams.net" modified="2023-01-13T09:04:01.835Z" agent="5.0 (Macintosh; Intel Mac OS X 10_15_7) AppleWebKit/537.36 (KHTML, like Gecko) Chrome/108.0.0.0 Safari/537.36" etag="FMrTrXSpRdcI9_1Rkvdt" version="20.8.5" type="github">
  <diagram id="R2lEEEUBdFMjLlhIrx00" name="Page-1">
    <mxGraphModel dx="3835" dy="2640" grid="1" gridSize="10" guides="1" tooltips="1" connect="1" arrows="1" fold="1" page="1" pageScale="1" pageWidth="850" pageHeight="1100" math="0" shadow="0" extFonts="Permanent Marker^https://fonts.googleapis.com/css?family=Permanent+Marker">
      <root>
        <mxCell id="0" />
        <mxCell id="1" parent="0" />
        <mxCell id="tXJDFZL9YtVQwRo4H7Yu-1" value="&lt;div style=&quot;&quot;&gt;&lt;span style=&quot;background-color: initial;&quot;&gt;１・エンティティの抽出&lt;/span&gt;&lt;/div&gt;&lt;div style=&quot;&quot;&gt;&lt;span style=&quot;background-color: initial;&quot;&gt;・User&lt;/span&gt;&lt;/div&gt;&lt;div style=&quot;&quot;&gt;&lt;span style=&quot;background-color: initial;&quot;&gt;・Questions&lt;/span&gt;&lt;/div&gt;&lt;div style=&quot;&quot;&gt;&lt;span style=&quot;background-color: initial;&quot;&gt;・Answers&lt;/span&gt;&lt;/div&gt;&lt;div style=&quot;&quot;&gt;・Category(ジャンル)&lt;/div&gt;&lt;div style=&quot;&quot;&gt;・Difficulty(難易度)&lt;/div&gt;&lt;div style=&quot;&quot;&gt;・Vector(解答方向。中→日or日→中)&lt;/div&gt;&lt;div style=&quot;&quot;&gt;・AttentionBox(誤答格納(一問一答の誤答) + お気に入り登録した単語(favorite登録した単語帳の単語))&lt;/div&gt;" style="text;strokeColor=none;align=left;fillColor=none;html=1;verticalAlign=middle;whiteSpace=wrap;rounded=0;" vertex="1" parent="1">
          <mxGeometry x="-780" y="-750" width="340" height="140" as="geometry" />
        </mxCell>
        <mxCell id="tXJDFZL9YtVQwRo4H7Yu-2" value="&lt;div style=&quot;&quot;&gt;&lt;span style=&quot;background-color: initial;&quot;&gt;0・管理したいデータの概観&lt;/span&gt;&lt;/div&gt;&lt;div style=&quot;&quot;&gt;&lt;span style=&quot;background-color: initial;&quot;&gt;・ユーザー登録(サインイン)&lt;/span&gt;&lt;/div&gt;&lt;div style=&quot;&quot;&gt;・ユーザー情報の削除、更新&lt;/div&gt;&lt;div style=&quot;&quot;&gt;&lt;span style=&quot;background-color: initial;&quot;&gt;・ログインとその時刻などの保存&lt;/span&gt;&lt;/div&gt;&lt;div style=&quot;&quot;&gt;・ログインデータの保存&lt;span style=&quot;background-color: initial;&quot;&gt;&lt;br&gt;&lt;/span&gt;&lt;/div&gt;&lt;div style=&quot;&quot;&gt;&lt;span style=&quot;background-color: initial;&quot;&gt;・テスト結果の保存(通信するたびに同期する)&lt;/span&gt;&lt;/div&gt;&lt;div style=&quot;&quot;&gt;&lt;div style=&quot;border-color: var(--border-color);&quot;&gt;・問題の中には１ジャンル、２難易度、３訳す方向(和訳or中訳)がある&lt;/div&gt;&lt;div style=&quot;border-color: var(--border-color);&quot;&gt;・問題たちをデータベースに保存しておいて、クイズ挑戦した時に通信してクイズのリストを取得&lt;/div&gt;&lt;/div&gt;&lt;div style=&quot;&quot;&gt;&lt;span style=&quot;background-color: initial;&quot;&gt;&lt;br&gt;&lt;/span&gt;&lt;/div&gt;&lt;div style=&quot;&quot;&gt;問題形式についてのまとめ&lt;/div&gt;&lt;div style=&quot;&quot;&gt;&lt;span style=&quot;background-color: initial;&quot;&gt;・単語帳→単語とその答えを表示するだけ。かつ気になる単語は保存できる(favotite機能をつけたい)できれば検索機能をつけたい&lt;/span&gt;&lt;/div&gt;&lt;div style=&quot;&quot;&gt;&lt;span style=&quot;background-color: initial;&quot;&gt;・一問一答→単語帳の答えを隠すバージョン。問題形式にする&lt;/span&gt;&lt;/div&gt;&lt;div style=&quot;&quot;&gt;&lt;span style=&quot;background-color: initial;&quot;&gt;・テスト→これ必要か？もう一度考える(今のところはwant機能)&lt;/span&gt;&lt;/div&gt;&lt;div style=&quot;&quot;&gt;&lt;span style=&quot;background-color: initial;&quot;&gt;・やり直し→一問一答で間違えた問題をどんどん格納する。(誤答で強制格納。正答は何もなし)(want機能)&lt;/span&gt;&lt;/div&gt;&lt;div style=&quot;&quot;&gt;&lt;span style=&quot;background-color: initial;&quot;&gt;・マイページ→その他の全て。主にユーザー情報に関わる部分&lt;/span&gt;&lt;/div&gt;&lt;div style=&quot;&quot;&gt;&lt;br&gt;&lt;/div&gt;" style="text;strokeColor=none;align=left;fillColor=none;html=1;verticalAlign=middle;whiteSpace=wrap;rounded=0;" vertex="1" parent="1">
          <mxGeometry x="-780" y="-990" width="610" height="140" as="geometry" />
        </mxCell>
      </root>
    </mxGraphModel>
  </diagram>
</mxfile>
